<?xml version="1.0" encoding="UTF-8"?>
<svg width="159px" height="25px" viewBox="0 0 159 25" version="1.1" xmlns="http://www.w3.org/2000/svg" xmlns:xlink="http://www.w3.org/1999/xlink">
    <title>78FA2F8A-2B54-4C1D-A24C-DE8C999883EC</title>
    <g id="Page-1" stroke="none" stroke-width="1" fill="none" fill-rule="evenodd">
        <g id="MP-ES-SEO-Homepage-A" transform="translate(-150.000000, -28.000000)" fill-rule="nonzero">
            <g id="miCVideal" transform="translate(150.000000, 28.000000)">
                <path d="M9.16399287,24.6847415 L9.16399287,23.4552333 C8.51317092,23.4131988 8.08278867,23.3186213 7.87284611,23.1715006 C7.66290355,23.02438 7.55793226,22.7091215 7.55793226,22.2257251 L7.55793226,22.2257251 L7.55793226,11.5069357 C8.48167954,11.0235393 9.32144979,10.7818411 10.077243,10.7818411 C10.7490592,10.7818411 11.2266786,10.9604876 11.510101,11.3177806 C11.7935235,11.6750736 11.9352347,12.211013 11.9352347,12.925599 L11.9352347,12.925599 L11.9352347,22.2257251 C11.9352347,22.7091215 11.835512,23.02438 11.6360665,23.1715006 C11.4366211,23.3186213 11.0114874,23.4131988 10.3606655,23.4552333 L10.3606655,23.4552333 L10.3606655,24.6847415 L19.33571,24.6847415 L19.33571,23.4552333 C18.6848881,23.4131988 18.2597544,23.3186213 18.060309,23.1715006 C17.8608635,23.02438 17.7611408,22.7091215 17.7611408,22.2257251 L17.7611408,22.2257251 L17.7611408,11.5069357 C18.7688651,11.0235393 19.5981382,10.7818411 20.2489602,10.7818411 C20.9417706,10.7818411 21.4298871,10.9604876 21.7133096,11.3177806 C21.996732,11.6750736 22.1384433,12.211013 22.1384433,12.925599 L22.1384433,12.925599 L22.1384433,22.2257251 C22.1384433,22.7091215 22.0387205,23.02438 21.8392751,23.1715006 C21.6398297,23.3186213 21.214696,23.4131988 20.563874,23.4552333 L20.563874,23.4552333 L20.563874,24.6847415 L29.6963755,24.6847415 L29.6963755,23.4552333 C29.0245593,23.4131988 28.5679342,23.3186213 28.3265003,23.1715006 C28.0850663,23.02438 27.9643494,22.7091215 27.9643494,22.2257251 L27.9643494,22.2257251 L27.9643494,12.3896595 C27.9643494,10.7503153 27.5707071,9.50504414 26.7834225,8.65384615 C25.9961378,7.80264817 24.8676966,7.37704918 23.3980986,7.37704918 C21.0047534,7.37704918 19.083779,8.46994536 17.6351753,10.6557377 C17.2152902,8.46994536 15.7561893,7.37704918 13.2578728,7.37704918 C10.9275104,7.37704918 9.0275302,8.44892812 7.55793226,10.592686 L7.55793226,10.592686 L7.6838978,7.37704918 L6.61319073,7.37704918 L0.0314913844,9.20554855 L0.0314913844,10.0882724 L1.76351753,11.1601513 L1.76351753,22.2257251 C1.76351753,22.7091215 1.64280055,23.02438 1.40136661,23.1715006 C1.15993266,23.3186213 0.692810458,23.4131988 0,23.4552333 L0,23.4552333 L0,24.6847415 L9.16399287,24.6847415 Z M35.3963161,5.98991173 C36.3200634,5.98991173 37.0653595,5.70617907 37.6322044,5.13871375 C38.1990493,4.57124842 38.4824718,3.8776797 38.4824718,3.05800757 C38.4824718,2.23833544 38.1990493,1.55002102 37.6322044,0.993064313 C37.0653595,0.436107608 36.3200634,0.157629256 35.3963161,0.157629256 C34.4515746,0.157629256 33.7010299,0.436107608 33.1446821,0.993064313 C32.5883343,1.55002102 32.3101604,2.23833544 32.3101604,3.05800757 C32.3101604,3.8776797 32.5883343,4.57124842 33.1446821,5.13871375 C33.7010299,5.70617907 34.4515746,5.98991173 35.3963161,5.98991173 Z M39.9940582,24.6847415 L39.9940582,23.4552333 C39.3012478,23.4131988 38.8341256,23.3186213 38.5926916,23.1715006 C38.3512577,23.02438 38.2305407,22.7091215 38.2305407,22.2257251 L38.2305407,22.2257251 L38.2305407,7.37704918 L37.2543078,7.37704918 L30.7040998,9.20554855 L30.7040998,10.0882724 L32.436126,11.1601513 L32.436126,22.2257251 C32.436126,22.7091215 32.315409,23.02438 32.073975,23.1715006 C31.8325411,23.3186213 31.3654189,23.4131988 30.6726084,23.4552333 L30.6726084,23.4552333 L30.6726084,24.6847415 L39.9940582,24.6847415 Z M52.9370172,25 C56.1491384,25 58.7209348,24.3169399 60.6524064,22.9508197 L60.6524064,22.9508197 L61.18776,16.6771753 L59.6131907,16.6771753 C58.4375124,21.1118117 56.4745494,23.3291299 53.7243018,23.3291299 C51.8348188,23.3291299 50.3809665,22.4096259 49.3627451,20.5706179 C48.3445237,18.7316099 47.835413,16.3198823 47.835413,13.3354351 C47.835413,10.4981084 48.2972866,8.20197562 49.2210339,6.44703657 C50.1447811,4.69209752 51.5408992,3.81462799 53.409388,3.81462799 C56.1806298,3.81462799 57.9756387,5.74821354 58.7944147,9.61538462 L58.7944147,9.61538462 L60.3374926,9.61538462 L60.2430184,4.09836066 C58.3745296,2.85834384 56.03367,2.23833544 53.2204397,2.23833544 C49.8403644,2.23833544 47.0113884,3.33123161 44.7335116,5.51702396 C42.4556348,7.70281631 41.3166964,10.6031946 41.3166964,14.2181589 C41.3166964,17.5388819 42.3559121,20.1660361 44.4343434,22.0996217 C46.5127748,24.0332072 49.3469994,25 52.9370172,25 Z M74.6975639,24.8108449 L82.7593583,5.04413619 C83.0112894,4.39260193 83.6306199,4.0037831 84.61735,3.8776797 L84.61735,3.8776797 L84.61735,2.55359395 L78.067142,2.55359395 L78.067142,3.8776797 C78.9908893,3.89869693 79.6049713,4.00903741 79.909388,4.20870113 C80.2138047,4.40836486 80.3660131,4.76040353 80.3660131,5.26481715 C80.3660131,5.51702396 80.2505447,5.93736864 80.0196078,6.5258512 L80.0196078,6.5258512 L75.9572193,17.0239596 L71.107546,6.5258512 C70.8976035,6.04245481 70.7926322,5.61160151 70.7926322,5.2332913 C70.7926322,4.74989491 70.9448406,4.40836486 71.2492573,4.20870113 C71.553674,4.00903741 72.167756,3.89869693 73.0915033,3.8776797 L73.0915033,3.8776797 L73.0915033,2.55359395 L61.9120618,2.55359395 L61.9120618,3.8776797 C62.4159239,3.9407314 62.7990691,4.04581757 63.0614973,4.19293821 C63.3239255,4.34005885 63.5496138,4.62379151 63.7385621,5.04413619 L63.7385621,5.04413619 L72.9340463,24.8108449 L74.6975639,24.8108449 Z" id="miCV" fill="#002D6B"></path>
                <path d="M89.6244801,5.98991173 C90.5482274,5.98991173 91.2935235,5.70617907 91.8603684,5.13871375 C92.4272133,4.57124842 92.7106358,3.8776797 92.7106358,3.05800757 C92.7106358,2.23833544 92.4272133,1.55002102 91.8603684,0.993064313 C91.2935235,0.436107608 90.5482274,0.157629256 89.6244801,0.157629256 C88.6797386,0.157629256 87.9291939,0.436107608 87.3728461,0.993064313 C86.8164983,1.55002102 86.5383244,2.23833544 86.5383244,3.05800757 C86.5383244,3.8776797 86.8164983,4.57124842 87.3728461,5.13871375 C87.9291939,5.70617907 88.6797386,5.98991173 89.6244801,5.98991173 Z M94.2222222,24.6847415 L94.2222222,23.4552333 C93.5294118,23.4131988 93.0622896,23.3186213 92.8208556,23.1715006 C92.5794217,23.02438 92.4587047,22.7091215 92.4587047,22.2257251 L92.4587047,22.2257251 L92.4587047,7.37704918 L91.4824718,7.37704918 L84.9322638,9.20554855 L84.9322638,10.0882724 L86.66429,11.1601513 L86.66429,22.2257251 C86.66429,22.7091215 86.543573,23.02438 86.302139,23.1715006 C86.0607051,23.3186213 85.5935829,23.4131988 84.9007724,23.4552333 L84.9007724,23.4552333 L84.9007724,24.6847415 L94.2222222,24.6847415 Z M107.8265,25 L114.502674,23.8965952 L114.502674,22.667087 L113.746881,22.6355612 C113.285007,22.6145439 112.991087,22.4936948 112.865122,22.2730139 C112.739156,22.0523329 112.676173,21.6477512 112.676173,21.0592686 L112.676173,21.0592686 L112.676173,0 L111.699941,0 L105.118241,1.45018916 L105.118241,2.39596469 L106.850267,3.27868852 L106.850267,8.44892812 C106.094474,7.8184111 105.055258,7.50315259 103.73262,7.50315259 C101.318281,7.50315259 99.3238265,8.33858764 97.7492573,10.0094578 C96.1746881,11.6803279 95.3874034,13.9974779 95.3874034,16.9609079 C95.3874034,19.482976 95.9699941,21.4533417 97.1351753,22.872005 C98.3003565,24.2906683 99.8381858,25 101.748663,25 C103.827094,25 105.527629,24.01219 106.850267,22.03657 L106.850267,22.03657 L106.755793,25 L107.8265,25 Z M105.055258,21.7213115 C103.837592,21.7213115 102.89285,21.1275746 102.221034,19.9401009 C101.549218,18.7526272 101.21331,17.1710803 101.21331,15.1954603 C101.21331,13.3669609 101.507229,11.9220261 102.095068,10.8606557 C102.682908,9.79928541 103.522678,9.26860025 104.614379,9.26860025 C105.412161,9.26860025 105.984254,9.53656999 106.33066,10.0725095 C106.677065,10.6084489 106.850267,11.4228668 106.850267,12.5157629 L106.850267,12.5157629 L106.850267,21.2799496 C106.325411,21.5741908 105.727075,21.7213115 105.055258,21.7213115 Z M123.761141,25 C125.692612,25 127.27243,24.4850778 128.500594,23.4552333 C129.728758,22.4253888 130.56328,21.0172341 131.004159,19.2307692 L131.004159,19.2307692 L130.405823,18.852459 C129.251139,20.3867171 127.687067,21.1538462 125.713607,21.1538462 C124.265003,21.1538462 123.084076,20.6021438 122.170826,19.498739 C121.257576,18.3953342 120.811448,16.9188735 120.832442,15.0693569 L120.832442,15.0693569 L130.878194,15.0693569 L130.878194,14.2812106 C130.878194,12.2005044 130.285106,10.5296343 129.09893,9.26860025 C127.912755,8.0075662 126.206972,7.37704918 123.981581,7.37704918 C121.651218,7.37704918 119.667261,8.22824716 118.029709,9.93064313 C116.392157,11.6330391 115.573381,13.8503573 115.573381,16.5825977 C115.573381,19.1677175 116.339671,21.2168979 117.872252,22.7301387 C119.404833,24.2433796 121.367796,25 123.761141,25 Z M125.902555,13.6191677 L120.863933,13.6191677 C121.031888,10.3404792 121.945138,8.70113493 123.603684,8.70113493 C125.136265,8.70113493 125.902555,10.3404792 125.902555,13.6191677 L125.902555,13.6191677 Z M145.017825,25 C146.655377,25 148.040998,24.4325347 149.174688,23.297604 L149.174688,23.297604 L148.954248,22.4464061 C148.660329,22.5725095 148.303426,22.6355612 147.883541,22.6355612 C147.316696,22.6355612 147.033274,22.1626734 147.033274,21.2168979 L147.033274,21.2168979 L147.033274,12.8625473 C147.033274,10.8869273 146.434938,9.47877259 145.238265,8.63808323 C144.041592,7.79739386 142.288572,7.37704918 139.979204,7.37704918 C137.963755,7.37704918 136.331452,7.73434216 135.082294,8.44892812 C133.833135,9.16351408 133.208556,10.2038672 133.208556,11.5699874 C133.208556,12.6839008 133.722915,13.419504 134.751634,13.776797 L134.751634,13.776797 L138.247178,13.3039092 C138.058229,12.4001681 137.963755,11.6645649 137.963755,11.0970996 C137.963755,9.43673813 138.5306,8.60655738 139.66429,8.60655738 C140.755991,8.60655738 141.301842,9.41572089 141.301842,11.0340479 L141.301842,11.0340479 L141.301842,14.2496847 L136.294712,16.0151324 C134.993068,16.4775116 133.974847,17.0554855 133.240048,17.7490542 C132.505249,18.442623 132.137849,19.4199243 132.137849,20.6809584 C132.137849,22.0050441 132.552486,23.0401429 133.381759,23.7862547 C134.211032,24.5323665 135.297485,24.9054224 136.641117,24.9054224 C138.635571,24.9054224 140.220638,24.0542245 141.396316,22.3518285 C141.627253,23.1925179 142.062884,23.8440521 142.703209,24.3064313 C143.343533,24.7688104 144.115072,25 145.017825,25 Z M139.916221,21.8789407 C138.467617,21.8789407 137.743316,20.9436738 137.743316,19.07314 C137.743316,18.2324506 137.895524,17.6124422 138.199941,17.2131148 C138.504357,16.8137873 138.960982,16.4985288 139.569816,16.2673392 L139.569816,16.2673392 L141.301842,15.6052963 L141.301842,21.4375788 C140.776986,21.7318201 140.315112,21.8789407 139.916221,21.8789407 Z M159,24.6847415 L159,23.4552333 C158.30719,23.4131988 157.840067,23.3186213 157.598633,23.1715006 C157.357199,23.02438 157.236482,22.7091215 157.236482,22.2257251 L157.236482,22.2257251 L157.236482,0 L156.26025,0 L149.67855,1.45018916 L149.67855,2.39596469 L151.410576,3.27868852 L151.410576,22.2257251 C151.410576,22.7091215 151.289859,23.02438 151.048425,23.1715006 C150.806991,23.3186213 150.339869,23.4131988 149.647059,23.4552333 L149.647059,23.4552333 L149.647059,24.6847415 L159,24.6847415 Z" id="ideal" fill="#FF3D3C"></path>
            </g>
        </g>
    </g>
</svg>